<?xml version="1.0" encoding="utf-8"?>
<!-- Generator: Adobe Illustrator 21.1.0, SVG Export Plug-In . SVG Version: 6.00 Build 0)  -->
<svg version="1.1" id="Layer_1" xmlns="http://www.w3.org/2000/svg" xmlns:xlink="http://www.w3.org/1999/xlink" x="0px" y="0px"
	 viewBox="0 0 42 518" style="enable-background:new 0 0 42 518;" xml:space="preserve">
<style type="text/css">
	.st0{fill:none;stroke:#8E8E8E;stroke-width:0.2835;stroke-linecap:round;stroke-linejoin:round;stroke-miterlimit:10;}
	.st1{fill:none;}
	.st2{fill:none;stroke:#8E8E8E;stroke-width:0.2835;stroke-linecap:round;stroke-linejoin:round;}
	.st3{fill:none;stroke:#8E8E8E;stroke-width:0.2835;stroke-linecap:round;stroke-linejoin:round;stroke-dasharray:0.8202,1.2303;}
	.st4{fill:none;stroke:#8E8E8E;stroke-width:0.2835;stroke-linecap:round;stroke-linejoin:round;stroke-dasharray:0.7361,1.1041;}
</style>
<g>
	<g>
		<path class="st0" d="M6,30v1c0,0.6,0.5,1,1,1h28c0.6,0,1-0.5,1-1v-1H6z"/>
		<path class="st0" d="M34.3,29.9V14.2c0-0.6-0.5-1-1-1H8.7c-0.6,0-1,0.5-1,1v15.8H34.3z"/>
		<rect x="9.6" y="15" class="st0" width="22.8" height="13.3"/>
		<line class="st0" x1="11.5" y1="19.5" x2="25.7" y2="15"/>
		<line class="st0" x1="13.9" y1="20.9" x2="28.1" y2="16.4"/>
	</g>
	<path class="st0" d="M39,41H3c-1.1,0-2-0.9-2-2V3c0-1.1,0.9-2,2-2h36c1.1,0,2,0.9,2,2v36C41,40.1,40.1,41,39,41z"/>
</g>
<g>
	<path class="st0" d="M39,84H3c-1.1,0-2-0.9-2-2V46c0-1.1,0.9-2,2-2h36c1.1,0,2,0.9,2,2v36C41,83.1,40.1,84,39,84z"/>
	<g>
		<g>
			<path class="st0" d="M7.1,64.2l6.7-6.7c0.3-0.3,0.3-0.8,0-1.1c-0.3-0.3-0.8-0.3-1.1,0l-7.2,7.2c-0.2,0.2-0.2,0.4-0.2,0.6
				c0,0.2,0.1,0.4,0.2,0.6l7.2,7.2c0.3,0.3,0.8,0.3,1.1,0c0.3-0.3,0.3-0.8,0-1.1L7.1,64.2z"/>
			<path class="st0" d="M34.8,64.2l-6.7-6.7c-0.3-0.3-0.3-0.8,0-1.1c0.3-0.3,0.8-0.3,1.1,0l7.2,7.2c0.2,0.2,0.2,0.4,0.2,0.6
				c0,0.2-0.1,0.4-0.2,0.6L29.3,72c-0.3,0.3-0.8,0.3-1.1,0c-0.3-0.3-0.3-0.8,0-1.1L34.8,64.2z"/>
		</g>
		<path class="st0" d="M16.3,68.9c0.4,0.4,0.9,0.4,1.3,0l8.1-8.1c0.4-0.4,0.4-0.9,0-1.3l0,0c-0.4-0.4-0.9-0.4-1.3,0l-8.1,8.1
			C15.9,68,15.9,68.6,16.3,68.9L16.3,68.9z"/>
		<rect x="1" y="44" class="st1" width="40" height="40"/>
	</g>
</g>
<g>
	<path class="st0" d="M39,127H3c-1.1,0-2-0.9-2-2V89c0-1.1,0.9-2,2-2h36c1.1,0,2,0.9,2,2v36C41,126.1,40.1,127,39,127z"/>
	<g>
		<g>
			<rect x="5.6" y="96.2" class="st0" width="14.3" height="24.8"/>
			<line class="st0" x1="5.6" y1="117.9" x2="17.2" y2="117.9"/>
			<line class="st0" x1="8.2" y1="99.3" x2="19.9" y2="99.3"/>
			<line class="st0" x1="11.6" y1="97.7" x2="14" y2="97.7"/>
			<g>
				<g>
					<polyline class="st2" points="20.3,106.7 19.9,106.7 19.9,107.1 					"/>
					<line class="st3" x1="19.9" y1="108.3" x2="19.9" y2="120"/>
					<polyline class="st2" points="19.9,120.6 19.9,121 20.3,121 					"/>
					<line class="st4" x1="21.4" y1="121" x2="35.6" y2="121"/>
					<polyline class="st2" points="36.1,121 36.5,121 36.5,120.6 					"/>
					<line class="st3" x1="36.5" y1="119.4" x2="36.5" y2="107.7"/>
					<polyline class="st2" points="36.5,107.1 36.5,106.7 36.1,106.7 					"/>
					<line class="st4" x1="35" y1="106.7" x2="20.9" y2="106.7"/>
				</g>
			</g>
			<path class="st0" d="M31.6,103.8c0-4.2-3.4-7.6-7.6-7.6"/>
			<polyline class="st0" points="34.1,102 31.6,104.5 29.1,102 			"/>
		</g>
		<rect x="1" y="87" class="st1" width="40" height="40"/>
	</g>
</g>
<g>
	<path class="st0" d="M39,170H3c-1.1,0-2-0.9-2-2v-36c0-1.1,0.9-2,2-2h36c1.1,0,2,0.9,2,2v36C41,169.1,40.1,170,39,170z"/>
	<g>
		<path class="st0" d="M30.2,163.7c0,1-0.8,1.8-1.8,1.8H13.7c-1,0-1.8-0.8-1.8-1.8v-26.9c0-1,0.8-1.8,1.8-1.8h14.6
			c1,0,1.8,0.8,1.8,1.8V163.7z"/>
		<line class="st0" x1="11.9" y1="161.3" x2="30.2" y2="161.3"/>
		<line class="st0" x1="19.1" y1="137" x2="23" y2="137"/>
		<polyline class="st0" points="14.6,157.6 14.6,138.9 27.5,138.9 27.5,143.2 		"/>
		<rect x="1" y="130" class="st1" width="40" height="40"/>
	</g>
</g>
<g>
	<path class="st0" d="M39,213H3c-1.1,0-2-0.9-2-2v-36c0-1.1,0.9-2,2-2h36c1.1,0,2,0.9,2,2v36C41,212.1,40.1,213,39,213z"/>
	<g>
		<g>
			<rect x="7.2" y="194.3" class="st0" width="27.6" height="13.5"/>
			<polygon class="st0" points="21,185.5 7.2,194.3 34.8,194.3 			"/>
			<path class="st0" d="M18.5,184.1c0,1.4,1.1,2.5,2.5,2.5c1.4,0,2.5-1.1,2.5-2.5c0-1.4-1.1-2.5-2.5-2.5v-2.3"/>
			<circle class="st0" cx="21" cy="178.7" r="0.7"/>
			<g>
				<line class="st0" x1="10.5" y1="196.1" x2="10.5" y2="206"/>
				<line class="st0" x1="14" y1="196.1" x2="14" y2="206"/>
				<line class="st0" x1="17.5" y1="196.1" x2="17.5" y2="206"/>
				<line class="st0" x1="21" y1="196.1" x2="21" y2="206"/>
				<line class="st0" x1="24.5" y1="196.1" x2="24.5" y2="206"/>
				<line class="st0" x1="28" y1="196.1" x2="28" y2="206"/>
				<line class="st0" x1="31.5" y1="196.1" x2="31.5" y2="206"/>
			</g>
		</g>
		<rect x="1" y="173" class="st1" width="40" height="40"/>
	</g>
</g>
<g>
	<path class="st0" d="M39,256H3c-1.1,0-2-0.9-2-2v-36c0-1.1,0.9-2,2-2h36c1.1,0,2,0.9,2,2v36C41,255.1,40.1,256,39,256z"/>
	<g>
		<g>
			<polyline class="st0" points="9,243 9,249.6 15.6,249.6 			"/>
			<line class="st0" x1="9" y1="249.6" x2="18.1" y2="240.4"/>
			<polyline class="st0" points="33,232.1 33,225.5 26.4,225.5 			"/>
			<line class="st0" x1="33" y1="225.5" x2="23.8" y2="234.7"/>
			<rect x="6.7" y="223.3" class="st0" width="28.6" height="28.6"/>
		</g>
		<rect x="1" y="216" class="st1" width="40" height="40"/>
	</g>
</g>
<g>
	<path class="st0" d="M39,299H3c-1.1,0-2-0.9-2-2v-36c0-1.1,0.9-2,2-2h36c1.1,0,2,0.9,2,2v36C41,298.1,40.1,299,39,299z"/>
	<g>
		<g>
			<circle class="st0" cx="11.7" cy="270.6" r="2.8"/>
			<path class="st0" d="M34.3,270.6c0,2.2-1.8,3.9-3.9,3.9H11.6c-2.2,0-3.9-1.8-3.9-3.9l0,0c0-2.2,1.8-3.9,3.9-3.9h18.8
				C32.6,266.6,34.3,268.4,34.3,270.6L34.3,270.6z"/>
			<circle class="st0" cx="30.3" cy="280.6" r="2.8"/>
			<path class="st0" d="M7.6,280.6c0-2.2,1.8-3.9,3.9-3.9h18.8c2.2,0,3.9,1.8,3.9,3.9l0,0c0,2.2-1.8,3.9-3.9,3.9H11.6
				C9.4,284.5,7.6,282.7,7.6,280.6L7.6,280.6z"/>
			<circle class="st0" cx="11.7" cy="290.6" r="2.8"/>
			<path class="st0" d="M34.3,290.6c0,2.2-1.8,3.9-3.9,3.9H11.6c-2.2,0-3.9-1.8-3.9-3.9l0,0c0-2.2,1.8-3.9,3.9-3.9h18.8
				C32.6,286.6,34.3,288.4,34.3,290.6L34.3,290.6z"/>
		</g>
		<rect x="1" y="259" class="st1" width="40" height="40"/>
	</g>
</g>
<g>
	<path class="st0" d="M39,342H3c-1.1,0-2-0.9-2-2v-36c0-1.1,0.9-2,2-2h36c1.1,0,2,0.9,2,2v36C41,341.1,40.1,342,39,342z"/>
	<g>
		<path class="st0" d="M36.1,331.8c0,1-0.8,1.7-1.7,1.7H7.7c-1,0-1.7-0.8-1.7-1.7v-19.1c0-1,0.8-1.7,1.7-1.7h26.7
			c1,0,1.7,0.8,1.7,1.7V331.8z"/>
		<line class="st0" x1="6" y1="316.3" x2="36.1" y2="316.3"/>
		<g>
			<line class="st0" x1="32.4" y1="312.7" x2="34.3" y2="314.6"/>
			<line class="st0" x1="34.3" y1="312.7" x2="32.4" y2="314.6"/>
			<rect x="29" y="312.7" class="st0" width="1.9" height="1.9"/>
			<line class="st0" x1="27.7" y1="314.6" x2="25.8" y2="314.6"/>
		</g>
		<path class="st0" d="M34,325.6c0,1-0.8,1.7-1.7,1.7H9.8c-1,0-1.7-0.8-1.7-1.7v-1.9c0-1,0.8-1.7,1.7-1.7h22.5c1,0,1.7,0.8,1.7,1.7
			V325.6z"/>
		<line class="st0" x1="28" y1="321.9" x2="28" y2="327.3"/>
		<g>
			
				<ellipse transform="matrix(0.7071 -0.7071 0.7071 0.7071 -220.2829 116.2018)" class="st0" cx="30.1" cy="324" rx="0.8" ry="0.8"/>
			<line class="st0" x1="30.7" y1="324.6" x2="32.1" y2="326"/>
		</g>
		<rect x="1" y="302" class="st1" width="40" height="40"/>
	</g>
</g>
<g>
	<path class="st0" d="M39,385H3c-1.1,0-2-0.9-2-2v-36c0-1.1,0.9-2,2-2h36c1.1,0,2,0.9,2,2v36C41,384.1,40.1,385,39,385z"/>
	<g>
		<path class="st0" d="M20,353.5l-3.5,2.3l-2.6-3.2c-0.6,0.1-1.2,0.3-1.8,0.5c-0.6,0.2-1.1,0.5-1.6,0.8l0.2,4.1l-4.1,0.6
			c-0.4,1.1-0.6,2.4-0.6,3.6l3.7,1.9l-1.5,3.9c0.8,0.9,1.8,1.7,2.8,2.3l3.5-2.3l2.6,3.2c0.6-0.1,1.2-0.3,1.8-0.5
			c0.6-0.2,1.1-0.5,1.6-0.8l-0.2-4.1l4.1-0.6c0.4-1.1,0.6-2.4,0.6-3.6l-3.7-1.9l1.5-3.9C22,354.8,21.1,354.1,20,353.5z"/>
		<ellipse transform="matrix(0.933 -0.3598 0.3598 0.933 -129.1441 29.8383)" class="st0" cx="15.6" cy="361.8" rx="2.6" ry="2.6"/>
		<path class="st0" d="M26.9,364.4l-0.6,3l-3-0.3c-0.3,0.4-0.5,0.8-0.7,1.2c-0.2,0.4-0.3,0.8-0.4,1.3l2.3,2l-1.8,2.5
			c0.4,0.8,0.9,1.5,1.6,2.2l2.9-1l1.2,2.8c0.9,0.1,1.8,0,2.7-0.3l0.6-3l3,0.3c0.3-0.4,0.5-0.8,0.7-1.2c0.2-0.4,0.3-0.8,0.4-1.3
			l-2.3-2l1.8-2.5c-0.4-0.8-0.9-1.5-1.6-2.2l-2.9,1l-1.2-2.8C28.7,364,27.8,364.1,26.9,364.4z"/>
		<ellipse transform="matrix(0.4053 -0.9142 0.9142 0.4053 -321.9163 247.1378)" class="st0" cx="29" cy="371" rx="2.6" ry="2.6"/>
		<rect x="1" y="345" class="st1" width="40" height="40"/>
	</g>
</g>
<g>
	<path class="st0" d="M39,428H3c-1.1,0-2-0.9-2-2v-36c0-1.1,0.9-2,2-2h36c1.1,0,2,0.9,2,2v36C41,427.1,40.1,428,39,428z"/>
	<g>
		<g>
			<polygon class="st0" points="20.8,396.3 5.3,404 20.8,411.8 36.3,404 			"/>
			<polyline class="st0" points="5.3,406.7 20.8,414.4 36.3,406.7 			"/>
			<polyline class="st0" points="5.3,409.5 20.8,417.2 36.3,409.5 			"/>
			<polyline class="st0" points="5.3,412.3 20.8,420 36.3,412.3 			"/>
			<polyline class="st0" points="5.3,415.1 20.8,422.8 36.3,415.1 			"/>
		</g>
		<rect x="1" y="388" class="st1" width="40" height="40"/>
	</g>
</g>
<g>
	<path class="st0" d="M39,471H3c-1.1,0-2-0.9-2-2v-36c0-1.1,0.9-2,2-2h36c1.1,0,2,0.9,2,2v36C41,470.1,40.1,471,39,471z"/>
	<g>
		<g>
			<circle class="st0" cx="28.7" cy="443.1" r="6.8"/>
			<g>
				<ellipse transform="matrix(0.7072 -0.707 0.707 0.7072 -304.168 148.3059)" class="st0" cx="27" cy="441.4" rx="0.4" ry="2.5"/>
				
					<ellipse transform="matrix(0.7071 -0.7071 0.7071 0.7071 -305.6607 151.8564)" class="st0" cx="30.5" cy="444.9" rx="0.4" ry="2.5"/>
			</g>
			<circle class="st0" cx="13.2" cy="443.1" r="6.8"/>
			<g>
				
					<ellipse transform="matrix(0.7071 -0.7071 0.7071 0.7071 -311.2022 138.4021)" class="st0" cx="11.5" cy="444.9" rx="2.5" ry="0.4"/>
				
					<ellipse transform="matrix(0.7071 -0.7071 0.7071 0.7071 -307.7208 139.8764)" class="st0" cx="15" cy="441.4" rx="2.5" ry="0.4"/>
			</g>
			<circle class="st0" cx="13.2" cy="458.6" r="6.8"/>
			<g>
				
					<ellipse transform="matrix(0.7071 -0.7071 0.7071 0.7071 -321.1295 145.4162)" class="st0" cx="15" cy="460.4" rx="0.4" ry="2.5"/>
				
					<ellipse transform="matrix(0.7071 -0.7071 0.7071 0.7071 -319.7003 141.9361)" class="st0" cx="11.5" cy="456.9" rx="0.4" ry="2.5"/>
			</g>
			<circle class="st0" cx="28.7" cy="458.6" r="6.8"/>
			<g>
				
					<ellipse transform="matrix(0.7071 -0.7071 0.7071 0.7071 -314.1158 155.3431)" class="st0" cx="30.5" cy="456.9" rx="2.5" ry="0.4"/>
				
					<ellipse transform="matrix(0.7071 -0.7071 0.7071 0.7071 -317.6407 153.9165)" class="st0" cx="27" cy="460.4" rx="2.5" ry="0.4"/>
			</g>
			<line class="st0" x1="13.2" y1="443.1" x2="28.7" y2="458.6"/>
			<line class="st0" x1="28.7" y1="443.1" x2="13.2" y2="458.6"/>
		</g>
		<rect x="1" y="431" class="st1" width="40" height="40"/>
	</g>
</g>
<g>
	<path class="st0" d="M39,514H3c-1.1,0-2-0.9-2-2v-36c0-1.1,0.9-2,2-2h36c1.1,0,2,0.9,2,2v36C41,513.1,40.1,514,39,514z"/>
	<g>
		<g>
			<path class="st0" d="M7.4,500.8c-1.3,1.3-1.3,3.4,0,4.7l2.4,2.4c1.3,1.3,3.4,1.3,4.7,0L31.3,491c0.1-0.1,0.2-0.2,0.3-0.3l0,0
				l0-0.1c0.4-0.5,0.5-1.1,0.6-1.7c0.5-2.4,3.3-9.1,3.3-9.1s-6.8,2.8-9.1,3.3c-0.6,0.1-1.2,0.2-1.7,0.6l-0.1,0l0,0
				c-0.1,0.1-0.2,0.2-0.3,0.3L7.4,500.8z"/>
			<path class="st0" d="M33.6,484.6c0.9-2.5,1.9-4.9,1.9-4.9s-2.4,1-4.9,1.9c0.3,0.6,0.8,1.2,1.3,1.7
				C32.4,483.8,33,484.3,33.6,484.6z"/>
			<line class="st0" x1="9.8" y1="507.8" x2="28.4" y2="489.2"/>
		</g>
		<rect x="1" y="474" class="st1" width="40" height="40"/>
	</g>
</g>
</svg>
